<?xml version="1.0" encoding="UTF-8" standalone="no"?>
<!-- Created with Inkscape (http://www.inkscape.org/) -->

<svg
   width="400"
   height="400"
   viewBox="0 0 105.83334 105.83333"
   version="1.1"
   id="svg1"
   xml:space="preserve"
   inkscape:version="1.4.1 (93de688d07, 2025-03-30)"
   sodipodi:docname="logogradi.svg"
   inkscape:export-filename="/home/violett/proyectowilmer/logoredes.svg"
   inkscape:export-xdpi="96"
   inkscape:export-ydpi="96"
   xmlns:inkscape="http://www.inkscape.org/namespaces/inkscape"
   xmlns:sodipodi="http://sodipodi.sourceforge.net/DTD/sodipodi-0.dtd"
   xmlns:xlink="http://www.w3.org/1999/xlink"
   xmlns="http://www.w3.org/2000/svg"
   xmlns:svg="http://www.w3.org/2000/svg"><sodipodi:namedview
     id="namedview1"
     pagecolor="#ffffff"
     bordercolor="#000000"
     borderopacity="0.25"
     inkscape:showpageshadow="2"
     inkscape:pageopacity="0.0"
     inkscape:pagecheckerboard="0"
     inkscape:deskcolor="#d1d1d1"
     inkscape:document-units="mm"
     inkscape:zoom="1.3630051"
     inkscape:cx="173.14683"
     inkscape:cy="190.38814"
     inkscape:window-width="1886"
     inkscape:window-height="976"
     inkscape:window-x="15"
     inkscape:window-y="65"
     inkscape:window-maximized="1"
     inkscape:current-layer="svg1" /><defs
     id="defs1"><linearGradient
       id="linearGradient4"
       inkscape:collect="always"><stop
         style="stop-color:#d7d8b9;stop-opacity:0.07648768;"
         offset="0"
         id="stop4" /><stop
         style="stop-color:#484444;stop-opacity:0;"
         offset="1"
         id="stop5" /></linearGradient><linearGradient
       id="linearGradient24"
       inkscape:collect="always"><stop
         style="stop-color:#d0bc8c;stop-opacity:1;"
         offset="0"
         id="stop24" /><stop
         style="stop-color:#c7b38b;stop-opacity:1;"
         offset="0.40507957"
         id="stop26" /><stop
         style="stop-color:#b89f6d;stop-opacity:1;"
         offset="1"
         id="stop25" /></linearGradient><radialGradient
       inkscape:collect="always"
       xlink:href="#linearGradient24"
       id="radialGradient27"
       cx="56.301868"
       cy="59.649017"
       fx="56.301868"
       fy="59.649017"
       r="55.579132"
       gradientTransform="matrix(0.60604702,0,0,0.64225311,20.472964,14.053264)"
       gradientUnits="userSpaceOnUse" /><radialGradient
       inkscape:collect="always"
       xlink:href="#linearGradient4"
       id="radialGradient5"
       cx="-31.738237"
       cy="19.314706"
       fx="-31.738237"
       fy="19.314706"
       r="24.749998"
       gradientTransform="matrix(1.6156863,0,0,1.6235295,106.21432,18.336123)"
       gradientUnits="userSpaceOnUse" /></defs><rect
     style="font-variation-settings:'wght' 300;fill:#484444;fill-opacity:1;stroke:none;stroke-width:0.271388"
     id="rect1"
     width="107.20821"
     height="106.91458"
     x="-0.062968515"
     y="-0.30822739" /><rect
     style="font-variation-settings:'wght' 300;fill:url(#radialGradient5);stroke:none;stroke-width:0.476876"
     id="rect2"
     width="79.976463"
     height="80.364708"
     x="14.947059"
     y="9.5117655" /><g
     inkscape:label="Layer 1"
     inkscape:groupmode="layer"
     id="layer1"
     transform="translate(-0.72273888,-0.74951352)"><path
       style="fill:url(#radialGradient27);fill-opacity:1;stroke-width:0.388447"
       d="m 53.975096,87.560211 c -0.253236,-0.274285 -0.769231,-0.900273 -1.146665,-1.391099 -0.669574,-0.87073 -1.133938,-1.259849 -1.50346,-1.259849 -0.45355,0 -1.178762,-0.648451 -1.178762,-1.054012 0,-0.116744 0.215014,-0.312246 0.578524,-0.526042 0.902548,-0.530827 1.985306,-1.690928 2.393143,-2.564103 0.782939,-1.676263 0.683359,-3.096801 -0.360842,-5.147258 -0.608374,-1.19468 -0.803275,-1.892408 -0.810026,-2.899919 -0.0084,-1.245358 0.557999,-2.864333 1.593143,-4.554225 0.512812,-0.83717 0.91091,-1.312348 1.099491,-1.312348 0.401994,0 1.998622,3.029759 2.346401,4.452533 0.37763,1.54487 0.227973,2.501228 -0.662468,4.233498 -0.670464,1.304308 -0.892839,2.243018 -0.790056,3.335074 0.08418,0.893775 0.336704,1.77783 0.685241,2.398434 0.312404,0.556267 1.498123,1.726349 2.040232,2.013332 0.53961,0.285671 0.741066,0.472032 0.741066,0.685548 0,0.292994 -0.643704,0.801226 -1.24632,0.98403 -0.519553,0.157607 -0.611634,0.239368 -1.409217,1.251272 -0.893353,1.133415 -1.589024,1.853825 -1.790171,1.853825 -0.06536,0 -0.326019,-0.224406 -0.579254,-0.498691 z M 38.82738,82.12052 c -2.774078,-0.392649 -5.492566,-1.385939 -7.465128,-2.727654 -2.500159,-1.700562 -4.386614,-3.586784 -5.848024,-5.847279 -1.304439,-2.017695 -2.206088,-4.62799 -2.588166,-7.492776 -0.234612,-1.759089 -0.157429,-6.19342 0.151483,-8.702855 0.182373,-1.481533 0.21242,-2.150486 0.176858,-3.937043 -0.06123,-3.073589 -0.308959,-3.87298 -1.634756,-5.274502 -0.644378,-0.681175 -0.754913,-0.848189 -0.694089,-1.048722 0.350944,-1.15701 2.175855,-1.796211 3.560614,-1.247157 1.031999,0.409181 1.926821,1.496266 2.317167,2.814996 0.224247,0.757634 0.284295,2.725581 0.10326,3.384281 -0.0544,0.197895 -0.08239,0.376976 -0.06236,0.397964 0.06583,0.06871 1.227603,-2.08868 2.04837,-3.803807 1.475071,-3.082422 2.107941,-5.011332 2.204572,-6.719226 0.130845,-2.312732 -0.686261,-3.858837 -2.311644,-4.374005 -0.598533,-0.189705 -0.764867,-0.203299 -1.25998,-0.102993 -0.313725,0.06356 -0.92209,0.300889 -1.351913,0.527397 -0.905123,0.476973 -0.876574,0.494043 -1.078048,-0.644775 -0.265241,-1.499208 0.140565,-2.842739 1.247321,-4.129697 0.653648,-0.760063 1.589305,-1.314112 2.736091,-1.620168 1.332474,-0.355609 2.614047,-0.200064 3.933441,0.477406 1.142132,0.586451 2.37228,1.892981 2.848274,3.025125 0.501827,1.193611 0.661419,3.572383 0.346815,5.169511 -0.411967,2.091412 -1.386295,3.879703 -5.458595,10.018737 -0.90796,1.368765 -2.536152,4.024658 -2.536152,4.136961 0,0.01821 0.622542,-0.614273 1.38342,-1.405485 1.857588,-1.931656 2.916628,-2.534399 4.486233,-2.55329 1.311125,-0.0158 2.593812,0.668428 3.430526,1.829916 0.71892,0.997966 0.824596,1.79023 0.306523,2.298096 -0.222177,0.217811 -0.292301,0.230112 -0.824831,0.14472 -0.978448,-0.156894 -2.146565,-0.09204 -2.959654,0.164325 -2.48882,0.784717 -4.868694,2.965507 -6.161251,5.645845 -1.75841,3.646373 -1.521935,8.529147 0.575565,11.883823 0.48812,0.780697 1.780985,2.451741 1.845107,2.384831 0.01619,-0.01691 -0.128355,-0.357933 -0.321253,-0.757829 -0.952979,-1.975649 -1.313455,-3.75126 -1.2322,-6.069566 0.04495,-1.282329 0.09386,-1.615938 0.363427,-2.479106 0.383322,-1.22737 0.953991,-2.157371 1.745694,-2.844886 1.738971,-1.510132 4.044968,-1.983777 5.648271,-1.160142 0.97211,0.499382 1.805593,1.583337 2.030102,2.640186 0.192308,0.905246 -0.08399,2.51971 -0.431143,2.51971 -0.08829,0 -0.500517,-0.175325 -0.916116,-0.389608 -0.654331,-0.337374 -0.850908,-0.389817 -1.466371,-0.39117 -0.816995,-0.002 -1.360648,0.234619 -2.002067,0.870649 -0.713434,0.707423 -0.973356,1.562894 -0.971127,3.196165 0.0037,2.551224 0.916772,4.805347 2.7133,6.69691 1.154343,1.215402 2.870007,2.308356 4.184269,2.665566 0.737283,0.200397 2.291325,0.204348 3.178704,0.0084 1.511729,-0.334342 2.762224,-1.31958 3.190352,-2.513605 0.24847,-0.692993 0.218095,-0.83073 -0.113344,-0.513877 -0.34629,0.331064 -1.031119,0.656541 -1.532169,0.728209 -1.048178,0.149918 -2.163775,-0.59905 -2.571649,-1.726518 -0.445731,-1.232104 -0.09649,-2.774269 0.82382,-3.637683 1.099154,-1.03122 3.072961,-1.193771 4.603286,-0.379104 0.577803,0.307596 1.425256,1.166792 1.81107,1.836165 1.435303,2.490216 0.857743,5.453943 -1.41271,7.249273 -2.060513,1.629316 -5.265978,2.278365 -8.78923,1.779675 z m 27.366424,0.06321 c -2.351748,-0.292573 -4.205964,-1.159006 -5.428023,-2.536387 -1.963293,-2.212821 -1.923901,-5.3794 0.09335,-7.501622 0.9006,-0.947474 1.944884,-1.403192 3.221841,-1.405986 1.503123,-0.0032 2.638438,0.686944 3.188433,1.938465 0.339772,0.773174 0.321402,2.004646 -0.04073,2.729685 -0.558195,1.117591 -1.209587,1.572526 -2.242203,1.565972 -0.733088,-0.0047 -1.093517,-0.137308 -1.735554,-0.638826 -0.432041,-0.33747 -0.425122,-0.162662 0.03118,0.789213 0.404278,0.843258 0.897436,1.328203 1.778935,1.749327 1.190083,0.568533 3.197992,0.756955 4.452918,0.417865 1.41917,-0.383473 2.898837,-1.320947 4.126252,-2.614253 1.648398,-1.736903 2.536489,-3.641826 2.756551,-5.912708 0.15461,-1.595578 -0.05927,-2.915424 -0.598404,-3.691996 -0.587999,-0.847002 -1.773316,-1.378842 -2.736961,-1.22805 -0.248198,0.03885 -0.782049,0.236032 -1.186338,0.438207 -0.404278,0.202177 -0.789858,0.34565 -0.856835,0.31883 -0.207861,-0.08324 -0.447847,-1.01436 -0.447763,-1.737319 1.51e-4,-1.327441 0.976857,-2.823395 2.241314,-3.432859 0.573102,-0.276235 0.719623,-0.30125 1.732773,-0.295785 1.256639,0.0068 1.84946,0.1896 2.815306,0.868255 0.667252,0.468845 1.689514,1.494307 2.058988,2.065436 0.295259,0.456401 0.728331,1.506745 0.930695,2.257242 0.203328,0.754059 0.147259,3.414316 -0.0975,4.626693 -0.219743,1.088423 -0.662515,2.341147 -1.142423,3.23229 -0.166558,0.309286 -0.261354,0.545507 -0.21066,0.52494 0.190164,-0.07714 1.370855,-1.534589 1.81637,-2.242135 1.467392,-2.330445 2.106208,-5.542542 1.680824,-8.451523 -0.67464,-4.613647 -4.287539,-8.653189 -8.35748,-9.344398 -0.399345,-0.06782 -0.887089,-0.05965 -1.535016,0.02575 l -0.949683,0.125165 -0.302779,-0.353605 c -0.27731,-0.323863 -0.297676,-0.398562 -0.242103,-0.888162 0.08034,-0.708078 0.630567,-1.539532 1.441831,-2.178862 1.988237,-1.566854 4.153724,-1.247269 6.507925,0.960453 0.400234,0.375333 0.994694,0.989511 1.321022,1.364844 0.326327,0.37533 0.628039,0.697654 0.670465,0.716277 0.07574,0.03325 -0.459861,-0.944066 -1.255637,-2.291094 -0.221737,-0.375333 -1.1757,-1.815647 -2.119916,-3.200701 -2.112351,-3.09855 -2.809135,-4.242415 -3.626158,-5.952821 -0.718874,-1.504954 -1.009021,-2.501734 -1.170353,-4.020701 -0.159798,-1.504553 0.08305,-3.065374 0.662823,-4.260145 0.899823,-1.854298 3.232057,-3.353229 5.217402,-3.353229 1.182619,0 3.01751,0.708462 3.724034,1.437867 1.076709,1.111584 1.557225,2.104709 1.641019,3.391575 0.0515,0.791223 -0.09326,1.954161 -0.265633,2.134053 -0.05627,0.05869 -0.211906,0.0078 -0.3972,-0.129905 -0.950939,-0.706576 -2.143409,-0.980827 -3.058158,-0.703333 -1.490474,0.452135 -2.283094,1.862252 -2.285697,4.06635 -0.0019,1.749887 0.608824,3.742612 2.111218,6.886689 0.785569,1.643965 2.103847,4.064096 2.173943,3.990956 0.02004,-0.02095 -0.0075,-0.200008 -0.06236,-0.397904 -0.153533,-0.558652 -0.119759,-2.490718 0.05589,-3.194251 0.344362,-1.379607 1.466251,-2.733714 2.533016,-3.05732 0.797349,-0.241877 1.782784,-0.157769 2.371813,0.202438 0.49312,0.301556 1.077749,0.938807 1.077749,1.174755 0,0.08331 -0.332404,0.483329 -0.738696,0.88893 -1.250646,1.248557 -1.639456,2.339217 -1.741116,4.884103 -0.04982,1.246709 -0.01052,1.902398 0.259201,4.319366 0.272937,2.446403 0.318461,3.218751 0.321785,5.459367 0.0037,2.195301 -0.02958,2.809032 -0.207326,3.863927 -0.911827,5.414133 -3.423559,9.328732 -8.005337,12.476517 -2.134795,1.466653 -4.746211,2.527145 -7.294357,2.962219 -1.144792,0.195454 -3.698219,0.283799 -4.678447,0.161859 z M 47.750425,64.932838 c -0.06657,-0.08367 -0.372303,-0.973638 -0.679472,-1.97772 -0.30717,-1.004078 -1.297379,-4.164201 -2.200471,-7.022496 -0.903091,-2.858296 -2.127247,-6.74206 -2.72036,-8.630587 -1.288409,-4.102483 -1.435687,-4.403744 -2.391467,-4.892028 -0.733134,-0.374536 -0.894645,-0.636808 -0.716954,-1.164185 l 0.09233,-0.273974 4.072385,-0.02766 c 3.739155,-0.02539 4.082665,-0.01302 4.198135,0.151298 0.365037,0.519389 -0.05384,1.13665 -0.879569,1.296145 -0.30393,0.0587 -0.638208,0.196069 -0.742836,0.305254 -0.223187,0.232901 -0.257224,0.105772 1.965671,7.341753 1.433984,4.667877 2.499026,8.192879 2.499026,8.271089 0,0.02749 0.04532,0.0208 0.100609,-0.01492 0.05533,-0.03567 0.100608,-0.13358 0.100608,-0.21754 0,-0.08396 0.791872,-2.357141 1.75973,-5.051518 l 1.759722,-4.898863 -0.707797,-2.19983 c -0.389287,-1.209908 -0.794344,-2.376846 -0.900113,-2.593196 -0.228274,-0.466908 -0.714829,-0.91867 -1.089248,-1.011348 -0.427463,-0.105796 -0.621072,-0.34539 -0.621072,-0.768551 0,-0.210473 0.05431,-0.439374 0.120733,-0.508668 0.140518,-0.146622 5.667757,-0.185279 5.753658,-0.04025 0.08109,0.136929 2.667738,8.745183 4.501252,14.980015 0.220754,0.750663 0.450291,1.527051 0.510096,1.725305 l 0.10874,0.360466 0.178656,-0.622935 c 0.322648,-1.125002 1.080427,-3.841526 1.638107,-5.872328 0.301281,-1.097124 0.937644,-3.396968 1.414161,-5.110767 0.4765,-1.713797 0.866378,-3.205577 0.866378,-3.315063 0,-0.379985 -0.427483,-0.652732 -1.259729,-0.803747 -0.846386,-0.153588 -1.054349,-0.310738 -1.054349,-0.796764 0,-0.151154 0.06424,-0.366537 0.142811,-0.478625 0.136128,-0.194252 0.290906,-0.203796 3.304738,-0.203796 3.528205,0 3.494675,-0.0065 3.494675,0.687778 0,0.487157 -0.179508,0.690563 -0.733968,0.83171 -0.558355,0.142135 -1.085099,0.446893 -1.306181,0.755714 -0.216072,0.301817 -2.695762,8.135178 -6.008663,18.981403 -0.449167,1.470566 -0.864879,2.734356 -0.923785,2.808423 -0.121342,0.152569 -2.146789,0.19657 -2.234461,0.04855 -0.04812,-0.08131 -0.661344,-2.058139 -2.6437,-8.522874 -0.469224,-1.530198 -1.021155,-3.318438 -1.226525,-3.973864 l -0.373389,-1.191683 -0.927708,2.556524 c -0.510245,1.406093 -1.601412,4.438486 -2.424829,6.738656 -0.823417,2.300168 -1.549801,4.237193 -1.614194,4.304503 -0.06779,0.07085 -0.53032,0.137298 -1.098722,0.15782 -0.765701,0.02766 -1.008281,0.002 -1.102647,-0.116673 z M 45.878689,36.384252 c -0.582251,-0.527784 -0.386685,-1.585344 0.367396,-1.986778 0.455356,-0.24241 2.162285,-0.623678 4.000734,-0.893625 1.829114,-0.268574 7.210358,-0.272896 8.85385,-0.0071 2.529737,0.409111 3.658798,0.695676 4.069659,1.032916 0.55741,0.457527 0.670259,1.12525 0.294754,1.743988 -0.181708,0.299418 -0.593506,0.308745 -1.461231,0.0331 -1.613322,-0.512505 -3.342256,-0.737183 -6.063917,-0.788016 -3.601242,-0.06726 -6.550914,0.188367 -8.340308,0.722795 -1.373317,0.410163 -1.421511,0.41416 -1.720937,0.142732 z m -0.706028,-3.890171 c -0.0205,-0.07218 -0.1129,-0.721792 -0.20536,-1.443584 -0.3335,-2.60348 -0.78938,-4.484427 -1.386791,-5.721838 -0.410103,-0.849455 -0.711467,-1.242768 -1.294298,-1.689214 -0.787228,-0.603006 -0.608693,-0.924594 0.665436,-1.198685 2.169383,-0.466674 4.478049,0.992815 4.478049,2.830921 0,0.4569 -0.04785,0.584134 -0.352142,0.93555 -0.415506,0.479913 -0.460807,0.961286 -0.156315,1.661116 0.242926,0.558362 0.945967,1.358197 1.411801,1.606183 0.976904,0.520055 2.057125,0.328747 2.94957,-0.522372 0.612008,-0.583678 0.915872,-1.201314 1.064583,-2.163913 0.111872,-0.724164 0.144001,-0.672691 -0.90237,-1.445797 -1.393112,-1.029296 -1.755797,-1.880449 -1.255759,-2.946961 0.237993,-0.507584 0.339849,-0.607669 0.934244,-0.918017 0.64979,-0.339276 0.674331,-0.367011 0.944516,-1.067725 0.453109,-1.175121 2.134785,-3.742584 2.451374,-3.742584 0.370018,0 1.723803,1.906165 2.423331,3.412106 0.525461,1.131212 0.5483,1.161318 1.115025,1.46983 0.654968,0.35655 0.915769,0.672733 1.045867,1.267979 0.200594,0.917734 -0.210483,1.621823 -1.461624,2.503443 -0.798006,0.562314 -0.909272,0.678838 -0.937194,0.981462 -0.08867,0.960699 0.652309,2.335055 1.601571,2.970688 0.441751,0.295798 0.647356,0.362749 1.217209,0.396351 0.587008,0.03461 0.765016,-8e-5 1.237087,-0.241087 0.605856,-0.309313 1.13467,-0.905404 1.453197,-1.638092 0.280896,-0.646126 0.264304,-1.053862 -0.05759,-1.416348 -0.145648,-0.163998 -0.326646,-0.452571 -0.4022,-0.641278 -0.317722,-0.79347 0.332227,-2.089995 1.374798,-2.742448 0.76452,-0.478455 1.214362,-0.595838 2.260274,-0.589811 0.995705,0.0057 1.884162,0.275139 1.942066,0.588884 0.02013,0.109254 -0.159985,0.322931 -0.484336,0.574468 -0.981549,0.761208 -1.666977,2.179062 -2.147633,4.442542 -0.264781,1.24688 -0.499552,2.709779 -0.620417,3.865892 -0.04728,0.451961 -0.118925,0.683598 -0.22463,0.725925 -0.0854,0.03419 -0.906827,-0.08626 -1.825443,-0.267663 -2.869007,-0.566561 -3.742977,-0.663685 -6.511643,-0.723641 -3.372754,-0.07303 -6.093478,0.175376 -8.937671,0.816043 -1.050932,0.236727 -1.355283,0.252237 -1.406539,0.07168 z"
       id="path1" /></g></svg>
