<?xml version="1.0" encoding="UTF-8" standalone="no"?>
<svg
   version="1.0"
   width="551.90662pt"
   height="565.20966pt"
   viewBox="0 0 551.90662 565.20966"
   preserveAspectRatio="xMidYMid"
   id="svg1"
   sodipodi:docname="LogoW.svg"
   xml:space="preserve"
   inkscape:version="1.4.1 (93de688d07, 2025-03-30)"
   xmlns:inkscape="http://www.inkscape.org/namespaces/inkscape"
   xmlns:sodipodi="http://sodipodi.sourceforge.net/DTD/sodipodi-0.dtd"
   xmlns="http://www.w3.org/2000/svg"
   xmlns:svg="http://www.w3.org/2000/svg"><defs
     id="defs1" /><sodipodi:namedview
     id="namedview1"
     pagecolor="#ffffff"
     bordercolor="#000000"
     borderopacity="0.25"
     inkscape:showpageshadow="2"
     inkscape:pageopacity="0.0"
     inkscape:pagecheckerboard="0"
     inkscape:deskcolor="#d1d1d1"
     inkscape:document-units="pt"
     inkscape:zoom="0.35355339"
     inkscape:cx="436.99199"
     inkscape:cy="558.61435"
     inkscape:window-width="1030"
     inkscape:window-height="976"
     inkscape:window-x="871"
     inkscape:window-y="65"
     inkscape:window-maximized="0"
     inkscape:current-layer="svg1" /><path
     style="fill:#d0bc8c;fill-opacity:1"
     d="m 271.39821,561.45614 c -5.20774,-6.47846 -9.01967,-15.17895 -9.50685,-21.69879 -0.38148,-5.10532 -0.20072,-6.06784 2.37571,-12.65074 3.51377,-8.97783 5.63749,-15 5.28976,-15 -0.14793,0 -1.79477,2.6453 -3.65964,5.87844 -5.9511,10.31745 -11.34421,13.64401 -23.03924,14.21096 -11.07648,0.53698 -18.28578,-2.20957 -21.34912,-8.13341 l -1.09388,-2.11533 3.55832,-0.4711 c 9.64264,-1.27663 15.98297,-2.81228 20.22627,-4.89888 9.44134,-4.6427 16.27427,-13.12116 20.225,-25.09568 1.73986,-5.27345 1.98729,-7.27146 2.04331,-16.5 0.0744,-12.2602 -1.20611,-17.87179 -6.68158,-29.28011 -7.52029,-15.66881 -19.96371,-26.68231 -38.84929,-34.38498 -2.82911,-1.15388 -2.83852,-1.172 -1.72582,-3.32372 4.12954,-7.98565 15.14956,-10.51081 24.96299,-5.7201 6.33697,3.09357 10.88887,8.81916 16.93126,21.29694 5.72062,11.8133 9.58291,19.00524 9.98853,18.59961 0.61041,-0.6104 -2.92955,-15.32697 -6.08877,-25.31264 -4.41818,-13.96499 -5.59858,-19.68472 -5.59858,-27.12827 0,-7.34214 1.457,-13.28775 5.2418,-21.39032 2.56985,-5.50158 8.89969,-15.3623 10.49392,-16.34759 0.88087,-0.5444 9.4062,12.88601 12.76562,20.11036 1.56801,3.37195 3.42729,8.75994 4.13175,11.97332 1.18609,5.41034 1.19319,6.35343 0.096,12.75 -0.65166,3.79912 -3.0507,13.08443 -5.33122,20.63401 -3.7294,12.3461 -6.279,23.76737 -5.48328,24.56309 0.16401,0.16401 3.37547,-6.02156 7.13659,-13.7457 5.33778,-10.9621 7.7423,-15.04245 10.9575,-18.59434 9.9771,-11.02187 23.26773,-13.21019 31.05381,-5.11306 1.75312,1.82316 3.1734,3.73079 3.15617,4.23917 -0.0172,0.50838 -3.64535,2.66454 -8.0625,4.79146 -18.46419,8.8908 -30.58879,22.09705 -37.14084,40.45423 -6.45302,18.07974 -3.40395,39.47493 7.5978,53.31346 5.59165,7.03344 13.92503,11.25719 26.46984,13.41615 3.87312,0.66656 7.15129,1.31829 7.28483,1.44828 0.13354,0.13 -0.27621,1.24002 -0.91056,2.46672 -2.99399,5.78974 -9.49112,8.09773 -21.08224,7.48908 -10.6123,-0.55725 -15.24944,-3.53969 -21.56004,-13.86663 -2.13921,-3.50068 -4.0082,-6.0087 -4.15331,-5.57336 -0.14511,0.43533 1.65439,5.61629 3.9989,11.51323 4.04356,10.17041 4.24403,10.98371 3.89888,15.81713 -0.27438,3.84242 -1.023,6.42446 -3.04429,10.5 -2.96009,5.96846 -9.28018,14.26657 -11.1384,14.62443 -0.7012,0.13504 -2.5028,-1.4037 -4.38512,-3.74532 z M 161.53159,505.60546 c -31.32468,-3.8481 -59.41075,-14.95625 -83.327047,-32.95618 -7.98343,-6.00851 -22.36515,-20.0094 -29.08059,-28.31053 -15.45137,-19.09986 -23.68433,-38.69564 -26.75541,-63.68219 -1.35332,-11.01073 -0.51376,-38.36078 1.90475,-62.04995 3.00699,-29.45334 2.03082,-42.17717 -4.23593,-55.21333 -2.85767,-5.94456 -9.85972,-13.47691 -14.505772,-15.60436 -6.26342956,-2.86805 -6.9811596,-4.83553 -3.2953796,-9.03341 7.1463816,-8.13927 26.1210516,-5.47261 35.5309416,4.99346 12.1316,13.49326 12.49601,31.35987 1.52679,74.85764 -3.04083,12.05823 -6.39932,28.35278 -6.35735,30.84423 0.0165,0.97942 1.49729,-2.60673 3.29065,-7.96923 1.79335,-5.3625 5.69115,-15.4875 8.66179,-22.5 11.93642,-28.1772 13.59436,-32.21209 15.81129,-38.47954 6.37123,-18.01199 9.08935,-32.85631 9.15916,-50.02046 0.0457,-11.22701 -1.05505,-16.60895 -5.08163,-24.8467 -2.59616,-5.31134 -7.54075,-10.7783 -9.74842,-10.7783 -3.86757,0 3.32552,-4.86449 8.39047,-5.67425 2.2329,-0.35698 4.64228,-0.0449 8.35126,1.08165 14.10957,4.28565 19.89059,17.82215 16.26701,38.08986 -1.08954,6.09414 -7.80762,31.15368 -9.81933,36.62774 -0.96804,2.63415 0.16568,0.95705 5.32352,-7.875 19.202957,-32.88228 27.665097,-59.82717 26.360647,-83.93679 -0.75931,-14.03406 -4.14216,-23.34542 -10.857838,-29.88647 -7.488669,-7.29392 -16.905999,-9.17358 -25.324689,-5.0547 -4.52201,2.21242 -9.9538,7.89001 -10.58955,11.06875 -0.40158,2.00792 -0.49154,2.04988 -1.8192,0.84836 -2.92218,-2.64454 -3.82072,-11.58485 -1.7694,-17.60516 1.63359,-4.79432 6.98602,-11.22342 12.2958,-14.76915 12.54389,-8.37649 23.707909,-8.91337 38.318457,-1.84274 7.90781,3.82691 16.75296,12.65024 20.4784,20.4279 3.80375,7.94115 5.09093,13.35012 5.53279,23.25 0.78523,17.5926 -4.86955,38.34965 -15.63049,57.375 -3.93211,6.95197 -22.503878,34.47665 -31.357637,46.47425 -2.75014,3.72666 -5.57086,7.64918 -6.26827,8.7167 -0.69741,1.06752 5.23183,-4.54246 13.176089,-12.46663 13.121868,-13.08867 14.993368,-14.67381 20.444118,-17.31595 5.80357,-2.81316 6.25781,-2.90828 13.875,-2.90562 6.67561,0.002 8.47552,0.27376 11.81796,1.7822 4.67166,2.10833 7.95629,5.61961 10.5437,11.27127 2.07312,4.52828 2.55216,11.20991 1.01025,14.09098 l -0.87809,1.64072 -3.25115,-1.43814 c -8.71791,-3.85634 -22.13707,-3.66503 -32.45476,0.46269 -15.59295,6.23817 -32.916557,19.57354 -46.575647,35.85304 -28.35673,33.79676 -38.19545,73.95264 -26.34887,107.54065 4.42624,12.54952 9.97011,21.28965 20.1481,31.76428 6.33059,6.51509 6.54133,6.53804 2.5681,0.27956 -6.35955,-10.0173 -12.30004,-24.22592 -15.05126,-36 -1.97874,-8.46822 -1.97965,-28.27492 -0.002,-36.75 7.26586,-31.13227 28.2132,-55.36752 54.259257,-62.77582 8.52363,-2.42438 22.37285,-2.41315 30.21409,0.0245 12.22802,3.80139 21.77569,11.35971 27.63416,21.87632 4.85919,8.72278 6.36037,14.46663 5.94183,22.73472 -0.905,17.87789 -12.50242,31.33317 -28.64175,33.23003 -6.44992,0.75806 -7.0149,0.10138 -3.05398,-3.54967 2.09703,-1.93298 4.46235,-5.29301 6.1937,-8.79837 2.76588,-5.59995 2.80104,-5.78453 2.80104,-14.70642 0,-8.50066 -0.12983,-9.29166 -2.19407,-13.36794 -2.97123,-5.86734 -8.47365,-11.42864 -13.73897,-13.886 -6.49133,-3.02956 -15.78533,-3.25133 -23.78044,-0.56746 -11.542538,3.8747 -21.319617,11.18103 -29.629077,22.14155 -4.16946,5.49969 -8.7706,12.76956 -8.08192,12.76956 0.18867,0 3.67488,-3.39124 7.74711,-7.53609 5.63357,-5.73403 8.64152,-8.15517 12.57899,-10.125 10.672567,-5.33928 19.758317,-2.27551 24.572867,8.28609 2.29629,5.03734 2.02066,5.58063 -2.58983,5.10478 -12.03533,-1.24215 -27.255837,7.40381 -34.103607,19.37247 -3.08833,5.39785 -6.13835,16.15728 -6.66808,23.52275 -0.8246,11.46531 2.37279,26.39675 7.78927,36.375 5.91088,10.88905 20.018329,26.10498 31.196957,33.64824 12.42983,8.38757 30.10769,15.72152 44.70382,18.54612 5.25075,1.01611 7.96543,0.92891 4.86682,-0.15633 -9.47306,-3.31779 -21.18637,-9.85111 -28.40706,-15.84458 -9.03126,-7.49631 -17.22378,-20.77838 -20.69678,-33.55453 -2.20842,-8.1241 -1.7985,-17.71001 1.02064,-23.86783 5.73427,-12.5253 19.26691,-18.94333 30.66678,-14.54412 5.67285,2.18915 6.03667,3.21522 2.31206,6.52053 -12.65067,11.22649 -15.03347,29.93133 -6.16277,48.3775 1.58695,3.3 4.57246,8.06575 6.63444,10.59056 9.45215,11.57371 26.10985,19.75839 40.21285,19.75839 5.60639,0 13.54835,-1.64311 17.35798,-3.59118 7.78579,-3.98131 13.78259,-12.19879 13.75055,-18.84253 -0.0261,-5.47129 -4.09378,-12.79024 -7.10821,-12.79024 -0.88577,0 -1.125,1.04715 -1.125,4.92431 0,5.76086 -0.6954,7.37109 -3.89863,9.02755 -4.3854,2.26778 -12.59695,-0.18109 -16.61354,-4.95454 -2.12788,-2.52884 -4.24027,-8.67642 -4.23365,-12.32095 0.0117,-6.44485 3.11475,-11.29125 9.28101,-14.49533 3.25641,-1.69208 4.80839,-1.99955 10.21481,-2.02372 5.82371,-0.026 6.87348,0.20937 12.13934,2.72225 7.16547,3.41937 11.65378,7.49124 14.94283,13.55636 2.47196,4.55839 2.54283,4.92988 2.54283,13.32984 0,8.32119 -0.0949,8.83349 -2.56526,13.85155 -3.0333,6.16151 -10.94259,14.40488 -17.57786,18.32032 -5.62387,3.31863 -15.83171,7.12363 -23.13776,8.62467 -5.33351,1.09578 -21.42292,1.49071 -27.96912,0.68654 z m 201.63118,-0.60845 c -18.29692,-3.32016 -35.02218,-14.51919 -41.84849,-28.02123 -2.2306,-4.41201 -3.45229,-12.11194 -2.67726,-16.8739 1.45882,-8.96334 8.95552,-19.08213 16.79709,-22.67212 5.02739,-2.30161 11.82944,-3.5899 15.80593,-2.99358 7.39767,1.10934 14.24488,6.22272 16.17857,12.08186 1.94403,5.89046 -0.69809,15.50467 -5.33537,19.4145 -5.1182,4.31532 -10.44767,5.29891 -14.69128,2.7114 -3.45239,-2.10507 -4.18574,-3.98693 -3.85243,-9.88577 0.33462,-5.92186 -0.20748,-6.31867 -3.70392,-2.71127 -4.58736,4.73296 -5.84892,11.91943 -3.09211,17.61424 2.57974,5.32903 12.21617,11.66261 20.8349,13.69381 6.2174,1.46526 18.62376,0.58635 25.50706,-1.80702 16.42657,-5.71163 29.67775,-19.86587 33.84213,-36.14843 3.94124,-15.41009 0.19142,-29.85018 -10.17831,-39.19541 -3.44517,-3.10479 -3.56174,-3.33243 -2.21191,-4.31945 2.31608,-1.69356 6.37756,-2.51987 12.36922,-2.51652 7.35947,0.004 11.77313,2.0137 17.01183,7.74568 9.44792,10.33752 10.20375,25.09636 2.15694,42.11781 -7.18029,15.1885 -16.983,24.39791 -36.23127,34.0384 -4.22813,2.11765 -7.6875,4.06317 -7.6875,4.32337 0,1.01866 8.30824,-0.51492 16.875,-3.1149 17.65541,-5.35835 32.07581,-13.59908 44.37892,-25.36094 12.39742,-11.852 20.38687,-24.1316 24.243,-37.26093 2.34841,-7.99583 2.94067,-24.58622 1.16295,-32.57673 -2.62783,-11.81159 -10.16651,-22.87104 -18.45201,-27.06963 -8.15669,-4.1333 -12.02297,-5.18889 -18.80988,-5.13554 l -6.47703,0.0509 0.56452,-1.96836 c 2.71588,-9.46972 10.2599,-15.15623 18.59196,-14.01419 6.32635,0.86712 11.33802,4.00129 19.48507,12.18547 4.22813,4.24739 7.6875,7.57072 7.6875,7.38517 0,-1.59643 -7.47594,-12.2527 -11.94108,-17.02092 -6.46284,-6.90153 -12.52044,-11.42822 -20.25069,-15.13285 -7.00386,-3.35651 -12.39183,-4.46358 -19.67241,-4.04211 -10.89056,0.63044 -18.67525,6.21719 -23.81184,17.08878 -1.73135,3.6644 -1.94865,5.04621 -1.94603,12.375 0.003,7.8627 0.12324,8.49646 2.56519,13.5 1.58707,3.2519 4.18031,6.86815 6.81374,9.50169 l 4.25151,4.2517 -2.39998,0.45024 c -3.33431,0.62552 -9.66178,-0.85365 -14.88983,-3.48078 -6.46649,-3.24946 -10.91899,-8.11866 -15.06988,-16.48021 -3.16994,-6.38552 -3.59419,-7.84042 -3.95018,-13.54652 -0.32746,-5.24884 -0.10018,-7.38157 1.27023,-11.9194 4.9259,-16.31116 15.65296,-27.58644 31.05836,-32.64566 5.29748,-1.73972 7.37768,-2.00833 15.84789,-2.04639 7.9331,-0.0356 10.83895,0.26801 15.59362,1.6295 25.80354,7.38881 46.51518,30.40185 53.95786,59.95344 2.20646,8.76088 2.39886,28.78302 0.36732,38.22614 -2.60071,12.0888 -8.72755,27.30383 -14.91008,37.02677 -4.10656,6.45817 -4.08573,6.56064 0.44804,2.20448 10.28022,-9.87748 20.16271,-26.32911 24.03415,-40.01022 6.66035,-23.53676 2.77923,-49.87675 -11.3586,-77.08726 -14.64485,-28.18637 -47.6968,-57.5046 -70.56301,-62.59185 -7.21987,-1.60627 -16.62653,-1.1218 -23.64647,1.21785 -2.79244,0.93068 -5.32369,1.44562 -5.625,1.14431 -0.3013,-0.3013 -0.54783,-2.96658 -0.54783,-5.92283 0,-9.02625 4.82557,-16.50239 13.0869,-20.27524 2.71977,-1.24208 4.94399,-1.56289 10.94937,-1.57924 7.26957,-0.0198 7.74732,0.0834 13.5,2.91727 5.29659,2.60915 7.59682,4.53885 20.56229,17.25 8.02921,7.87172 14.23864,13.80596 13.79873,13.18721 -0.43992,-0.61875 -4.33128,-5.85 -8.64748,-11.625 -28.21004,-37.74455 -39.99283,-60.49686 -44.24297,-85.43218 -3.77609,-22.15415 0.44129,-39.13173 12.80009,-51.52829 6.53457,-6.55454 11.86186,-9.57314 21.13868,-11.97781 20.98576,-5.43976 40.65646,5.82798 41.81037,23.94976 0.30831,4.84205 -0.98004,12.86353 -2.06605,12.86353 -0.31762,0 -0.97604,-1.33023 -1.46316,-2.95606 -2.65327,-8.85586 -18.70409,-13.72775 -28.85883,-8.7595 -4.58956,2.24546 -10.79948,8.42598 -13.20632,13.14378 -4.50954,8.83943 -6.12974,23.05672 -4.24875,37.28296 2.95107,22.31949 10.11395,41.59583 24.86667,66.91974 3.63713,6.24336 6.70347,11.26107 6.81408,11.15046 0.11061,-0.11061 -0.79925,-3.178 -2.0219,-6.81643 -3.49089,-10.38838 -8.26912,-31.57905 -8.73212,-38.72551 -0.45481,-7.02009 0.4791,-12.60516 2.91971,-17.46074 5.39515,-10.73363 18.44719,-16.18592 27.99886,-11.69611 1.85176,0.87043 3.36265,1.79856 3.35755,2.0625 -0.005,0.26395 -1.1839,1.24078 -2.61955,2.17073 -5.35479,3.46861 -10.5609,14.09709 -12.39712,25.30918 -0.53406,3.26104 -0.68089,8.80171 -0.38756,14.625 1.21774,24.175 4.75112,37.01308 19.91953,72.375 4.24658,9.9 9.67773,23.56875 12.06922,30.375 2.39149,6.80625 4.36539,11.78658 4.38646,11.0674 0.0705,-2.40596 -3.79563,-21.05275 -7.11514,-34.3174 -9.61836,-38.43459 -9.19224,-54.84472 1.80344,-69.4508 5.39753,-7.16979 16.26288,-12.18088 24.55556,-11.325 7.64707,0.78924 14.54444,5.28943 14.54444,9.4895 0,0.43351 -2.24005,1.84656 -4.97788,3.14013 -9.31474,4.401 -16.24171,13.41122 -19.56598,25.45035 -1.95354,7.07489 -1.72393,33.48707 0.46243,53.19582 3.09927,27.93804 2.88271,46.74957 -0.74582,64.78471 -5.37832,26.73226 -17.83351,48.64032 -39.619,69.68782 -13.70729,13.24295 -26.53611,22.04167 -44.44965,30.48606 -26.084,12.29591 -59.31923,18.40694 -79.84792,14.68181 z M 315.65659,339.74064 c -1.44375,-0.13254 -2.89286,-0.50165 -3.22024,-0.82025 -0.32739,-0.3186 -2.55693,-6.96016 -4.95453,-14.75902 -8.07988,-26.282 -27.23505,-86.92167 -27.76412,-87.8931 -0.29442,-0.54059 -1.12665,1.59877 -1.89643,4.875 -1.74228,7.41526 -5.89475,19.98448 -12.58318,38.08834 -2.89555,7.8375 -8.56588,23.81933 -12.60074,35.51517 -4.03486,11.69585 -7.68585,21.61492 -8.11331,22.04238 -2.36751,2.3675 -18.31648,2.29031 -19.54714,-0.0946 -0.34425,-0.66713 -11.13714,-32.7692 -23.9842,-71.33795 -12.84707,-38.56875 -24.11623,-71.475 -25.04259,-73.125 -1.38178,-2.46118 -2.86154,-3.58822 -8.2389,-6.27503 l -6.55462,-3.27502 v -3.28748 c 0,-2.90626 0.19568,-3.28863 1.6875,-3.29748 12.95764,-0.0769 57.87286,-0.12888 59.91869,-0.0694 2.2565,0.0656 2.81299,0.40529 3.20179,1.95441 0.53633,2.1369 -0.1527,5.625 -1.11115,5.625 -1.98944,0 -9.44941,3.4871 -11.71442,5.4758 -2.44036,2.14266 -2.61894,2.5857 -2.31192,5.73561 0.30438,3.12282 32.39936,103.23101 33.4833,104.43852 0.46853,0.52194 11.59894,-29.08487 17.39663,-46.27493 3.54384,-10.50744 10.44958,-34.21384 10.44958,-35.87192 0,-0.62762 -1.37105,-5.6382 -3.04678,-11.13461 -4.09282,-13.42452 -6.4716,-17.02279 -13.38205,-20.24237 -4.50645,-2.09956 -5.24193,-2.72314 -5.55579,-4.7105 -0.19896,-1.25983 0.0256,-2.68595 0.49894,-3.16916 0.63678,-0.65001 6.17094,-0.76721 21.27338,-0.45052 l 20.4127,0.42803 2.99631,9.07553 c 1.64797,4.99153 9.95196,30.84023 18.45333,57.44155 8.50136,26.60131 15.58191,48.49092 15.73455,48.64356 0.52594,0.52594 2.62289,-5.35882 15.41122,-43.24903 18.85519,-55.86554 18.52784,-54.65039 16.02584,-59.48872 -1.06557,-2.0606 -4.80911,-4.30335 -10.30056,-6.17106 -1.09857,-0.37364 -1.31073,-1.13378 -1.125,-4.03063 l 0.22891,-3.57015 h 20.25 20.25 l 0.22714,3.52703 c 0.22411,3.47983 0.18396,3.54873 -3,5.14817 -5.19617,2.61026 -7.63644,4.78138 -9.74715,8.67211 -1.08986,2.00898 -5.09091,13.10269 -8.89121,24.65269 -3.8003,11.55 -10.36418,30.61875 -14.5864,42.375 -4.22223,11.75625 -11.64946,33.35625 -16.50495,48 -4.8555,14.64375 -9.28112,27.52279 -9.83471,28.6201 -0.88646,1.75709 -1.52285,2.0255 -5.33463,2.25 -2.38045,0.14019 -5.50934,0.14646 -6.95309,0.0139 z M 210.2475,140.5157 c -2.3314,-2.3314 -2.38993,-5.26478 -0.13453,-6.74257 3.99884,-2.62015 27.60223,-8.72511 42.16862,-10.90682 13.60754,-2.0381 36.48212,-2.80349 46.55014,-1.55757 16.00434,1.98053 32.40808,6.07585 41.45502,10.34957 2.8941,1.36715 3.99019,3.61336 2.91491,5.97347 -1.3964,3.06492 -3.71595,3.11456 -19.67007,0.42091 -13.33793,-2.25194 -17.07759,-2.57818 -33.75,-2.94428 -28.70883,-0.63041 -51.28647,1.17947 -67.60495,5.41936 -8.74463,2.27205 -9.64594,2.27114 -11.92914,-0.0121 z m -0.34091,-24.44098 c 0,-8.49203 -1.13404,-16.537463 -3.46465,-24.579912 -4.85549,-16.75528 -10.56885,-27.85927 -19.22285,-37.35989 -2.78438,-3.05677 -5.0625,-5.89359 -5.0625,-6.30406 0,-1.50269 4.86426,-3.64387 9.37555,-4.12699 11.94048,-1.27871 23.71991,5.3043 29.24185,16.34202 3.17323,6.34291 3.30334,9.16907 0.7576,16.45555 -2.13897,6.1222 -2.40361,11.65745 -0.71359,14.92558 3.71168,7.177589 16.25482,6.865129 19.82027,-0.49375 l 1.10668,-2.28412 2.64332,2.77128 c 2.91971,3.06107 7.77056,4.91196 10.84864,4.13941 2.69711,-0.67693 4.66287,-4.23419 5.68344,-10.28484 1.87054,-11.0898 -1.32297,-16.71918 -13.20946,-23.28506 -11.45727,-6.3288 -14.54404,-10.3101 -11.73551,-15.1364 3.37521,-5.8001 14.4999,-4.98942 20.54117,1.49688 1.09173,1.17215 4.5863,6.34994 7.76571,11.50619 l 5.78074,9.375 -0.44239,-5.26482 c -0.44487,-5.29427 -2.21667,-11.14442 -7.89197,-26.05783 -3.84848,-10.11292 -3.97589,-13.50402 -0.74995,-19.9597 1.94045,-3.88319 13.00202,-17.16391052 14.93865,-17.93560052 1.26364,-0.50353 12.87271,13.05497052 15.16532,17.71192052 3.53694,7.18455 3.29232,10.09782 -1.94345,23.14547 -4.70963,11.7365 -7.23981,20.60139 -7.21903,25.29303 l 0.0136,3.06753 2.07723,-3.75 c 4.04279,-7.2984 10.72598,-16.8301 12.87189,-18.35812 3.40047,-2.42135 8.25362,-3.87544 13.00678,-3.89706 5.31771,-0.0242 7.26693,1.37609 7.26693,5.22039 0,5.14218 -3.06428,8.23437 -13.875,14.00137 -6.68815,3.56781 -8.41141,5.15952 -10.59193,9.78342 -1.99142,4.22288 -2.37,10.87985 -0.9414,16.55335 1.01519,4.03169 4.26132,7.07165 7.55126,7.07165 2.8226,0 7.72495,-2.68011 9.30036,-5.08448 l 1.17989,-1.80074 1.25091,2.47959 c 1.72779,3.4249 5.56084,5.477799 10.22038,5.473839 4.65187,-0.004 8.04424,-1.868909 9.6945,-5.329539 1.70172,-3.56854 1.51324,-6.98615 -0.74634,-13.53271 -3.27966,-9.50205 -1.60248,-17.36974 5.30243,-24.87383 5.82754,-6.33324 12.94353,-9.33948 21.88786,-9.24682 5.4416,0.0564 11.3941,1.89542 12.6353,3.90372 0.35501,0.57441 -0.86124,2.15383 -3.30429,4.29096 -4.72255,4.13117 -13.3563,17.00591 -16.55221,24.68284 -3.15008,7.56682 -6.58743,18.87632 -7.52948,24.773342 -0.42148,2.63838 -0.84304,8.50174 -0.93679,13.02969 -0.0937,4.52795 -0.28673,8.23298 -0.42884,8.23339 -0.14211,4.1e-4 -3.68586,-1.16735 -7.875,-2.59503 -8.90843,-3.03604 -26.82858,-6.76001 -37.88358,-7.87257 -10.96524,-1.10352 -31.68777,-0.95614 -43.61862,0.31021 -12.54238,1.33127 -22.49495,3.45317 -33.51027,7.14443 l -8.47916,2.84138 z"
     id="path2" /></svg>
