<?xml version="1.0" encoding="UTF-8" standalone="no"?>
<!-- Created with Inkscape (http://www.inkscape.org/) -->

<svg
   width="111.15826mm"
   height="117.799mm"
   viewBox="0 0 111.15826 117.799"
   version="1.1"
   id="svg1"
   xml:space="preserve"
   inkscape:version="1.4.1 (93de688d07, 2025-03-30)"
   sodipodi:docname="Logo1.svg"
   xmlns:inkscape="http://www.inkscape.org/namespaces/inkscape"
   xmlns:sodipodi="http://sodipodi.sourceforge.net/DTD/sodipodi-0.dtd"
   xmlns="http://www.w3.org/2000/svg"
   xmlns:svg="http://www.w3.org/2000/svg"><sodipodi:namedview
     id="namedview1"
     pagecolor="#ffffff"
     bordercolor="#000000"
     borderopacity="0.25"
     inkscape:showpageshadow="2"
     inkscape:pageopacity="0.0"
     inkscape:pagecheckerboard="0"
     inkscape:deskcolor="#d1d1d1"
     inkscape:document-units="mm"
     inkscape:zoom="0.68150253"
     inkscape:cx="393.24873"
     inkscape:cy="440.93747"
     inkscape:window-width="1886"
     inkscape:window-height="976"
     inkscape:window-x="15"
     inkscape:window-y="65"
     inkscape:window-maximized="1"
     inkscape:current-layer="layer1" /><defs
     id="defs1" /><g
     inkscape:label="Layer 1"
     inkscape:groupmode="layer"
     id="layer1"
     transform="translate(-0.72273888,-0.74951352)"><path
       style="fill:#d0bc8c;stroke-width:0.640952;fill-opacity:1"
       d="m 55.279771,117.72566 c -0.417852,-0.45257 -1.269272,-1.48548 -1.892043,-2.29535 -1.104823,-1.43674 -1.871042,-2.0788 -2.480762,-2.0788 -0.748381,0 -1.945,-1.06998 -1.945,-1.73916 0,-0.19264 0.354767,-0.51522 0.954574,-0.86799 1.489244,-0.87588 3.275837,-2.7901 3.948785,-4.23087 1.291873,-2.76589 1.127556,-5.10983 -0.595401,-8.493171 -1.003854,-1.971258 -1.325442,-3.122537 -1.336579,-4.784967 -0.01374,-2.054888 0.920723,-4.726255 2.62874,-7.514638 0.846156,-1.381362 1.503042,-2.165422 1.814208,-2.165422 0.663298,0 3.297792,4.999211 3.871646,7.346841 0.623104,2.549094 0.37617,4.127121 -1.093102,6.985424 -1.106292,2.152163 -1.473213,3.701073 -1.303613,5.503003 0.138812,1.47476 0.555571,2.93349 1.130668,3.9575 0.515483,0.91786 2.471953,2.84854 3.366456,3.32208 0.890379,0.47136 1.222784,0.77886 1.222784,1.13117 0,0.48345 -1.062125,1.32206 -2.056468,1.62369 -0.857287,0.26006 -1.009219,0.39497 -2.325261,2.06465 -1.474066,1.87018 -2.621951,3.05887 -2.953854,3.05887 -0.107828,0 -0.537933,-0.37028 -0.955778,-0.82286 z m -24.994293,-8.97568 c -4.577335,-0.64789 -9.062937,-2.28686 -12.317742,-4.50073 -4.12535,-2.806 -7.238082,-5.918328 -9.6494598,-9.64823 C 6.1659049,91.271748 4.6781481,86.964665 4.0477091,82.237662 3.6605959,79.335099 3.7879529,72.01829 4.2976607,67.877629 4.5985853,65.433045 4.6481684,64.329247 4.589476,61.381361 4.4885014,56.309826 4.0796884,54.990803 1.8920731,52.67824 0.82883562,51.554277 0.64644352,51.278696 0.74680632,50.947809 1.3258695,49.038699 4.3370402,47.983995 6.6219537,48.889955 c 1.7028229,0.675163 3.1793294,2.468895 3.8234023,4.644845 0.370027,1.250126 0.469108,4.497312 0.170391,5.584191 -0.08975,0.326533 -0.136032,0.622025 -0.102846,0.656654 0.108644,0.113368 2.025603,-3.446399 3.379894,-6.276423 2.433923,-5.086109 3.478184,-8.268883 3.637626,-11.086971 0.2159,-3.816093 -1.132362,-6.367223 -3.814304,-7.21727 -0.987602,-0.313019 -1.26205,-0.33545 -2.079004,-0.169944 -0.51766,0.104876 -1.521483,0.496477 -2.2307099,0.870224 -1.493482,0.787021 -1.4463855,0.815188 -1.7788257,-1.063904 -0.437645,-2.473747 0.2319375,-4.690624 2.0581357,-6.814152 1.0785389,-1.254133 2.6224089,-2.168334 4.5146529,-2.673337 2.198622,-0.58677 4.313266,-0.330113 6.490316,0.787738 1.884564,0.967667 3.914351,3.123488 4.699751,4.991566 0.828048,1.969505 1.091377,5.894567 0.572267,8.529884 -0.679762,3.45091 -2.287444,6.401656 -9.006886,16.531289 -1.498173,2.258513 -4.184739,6.640833 -4.184739,6.826138 0,0.03005 1.027207,-1.013573 2.282688,-2.319103 3.065089,-3.187304 4.812548,-4.181851 7.402449,-4.213023 2.163409,-0.02606 4.279892,1.102933 5.660499,3.019428 1.186241,1.646683 1.36061,2.953948 0.505776,3.791946 -0.366608,0.359396 -0.48231,0.379693 -1.360999,0.238792 -1.61449,-0.25888 -3.541921,-0.151869 -4.883538,0.271142 -4.106646,1.294813 -8.033534,4.893197 -10.166299,9.315855 -2.9014489,6.016648 -2.5112429,14.073407 0.949699,19.608747 0.805422,1.288179 2.938695,4.045462 3.044496,3.935059 0.02673,-0.02789 -0.21179,-0.590603 -0.530078,-1.250446 -1.572456,-3.259895 -2.167243,-6.189716 -2.033169,-10.015007 0.07416,-2.115891 0.154855,-2.666359 0.599668,-4.090619 0.63249,-2.025203 1.574119,-3.559741 2.880455,-4.694167 2.869362,-2.491772 6.674348,-3.273305 9.31986,-1.914276 1.604017,0.823999 2.979291,2.612565 3.349738,4.356405 0.317315,1.493689 -0.138503,4.157612 -0.711398,4.157612 -0.145638,0 -0.825871,-0.289291 -1.511625,-0.642865 -1.079675,-0.556681 -1.404036,-0.643212 -2.419573,-0.645445 -1.348074,-0.0033 -2.245116,0.38713 -3.303489,1.436603 -1.177181,1.167274 -1.60607,2.578833 -1.60238,5.27379 0.0056,4.209612 1.512692,7.928999 4.477037,11.050153 1.904705,2.005446 4.735622,3.808876 6.904196,4.398276 1.216553,0.33066 3.780766,0.33718 5.244981,0.0134 2.494409,-0.55168 4.557778,-2.17736 5.264194,-4.147546 0.40999,-1.143459 0.359869,-1.370727 -0.187012,-0.84791 -0.571395,0.54627 -1.701391,1.083316 -2.52814,1.201566 -1.729533,0.24737 -3.570307,-0.988456 -4.243318,-2.848817 -0.735468,-2.033014 -0.159191,-4.577643 1.35933,-6.002309 1.813649,-1.70155 5.070512,-1.969766 7.595597,-0.625534 0.953388,0.507543 2.351727,1.925249 2.988327,3.02974 2.368309,4.108952 1.415317,8.99921 -2.331021,11.96157 -3.399916,2.68843 -8.689051,3.75939 -14.502548,2.93653 z m 45.155602,0.10427 c -3.880468,-0.48276 -6.939992,-1.9124 -8.956433,-4.18513 -3.239514,-3.65124 -3.174504,-8.876214 0.154002,-12.377958 1.486025,-1.563367 3.209133,-2.315319 5.316153,-2.319928 2.480216,-0.0052 4.353523,1.133483 5.261032,3.198539 0.560647,1.275765 0.530335,3.307738 -0.06719,4.504076 -0.921043,1.844065 -1.995855,2.594731 -3.699719,2.583921 -1.20962,-0.008 -1.804337,-0.22657 -2.863727,-1.054086 -0.712879,-0.556842 -0.701466,-0.2684 0.05151,1.302226 0.667075,1.39141 1.480805,2.19159 2.935307,2.88645 1.963679,0.9381 5.276806,1.24901 7.347478,0.68949 2.341681,-0.63274 4.783189,-2.1796 6.808478,-4.313616 2.719921,-2.865946 4.185297,-6.00914 4.548403,-9.756177 0.255122,-2.632764 -0.09786,-4.81056 -0.987389,-6.09193 -0.97021,-1.397586 -2.926027,-2.275144 -4.516083,-2.026329 -0.409538,0.0641 -1.290411,0.389461 -1.957499,0.723058 -0.667081,0.333598 -1.303299,0.570333 -1.413812,0.526079 -0.342984,-0.137339 -0.738968,-1.67373 -0.73883,-2.866638 2.51e-4,-2.190328 1.611854,-4.658706 3.69825,-5.664344 0.945645,-0.455799 1.187415,-0.497074 2.85914,-0.488058 2.073509,0.0112 3.051681,0.312849 4.64537,1.432654 1.10099,0.773611 2.787756,2.465661 3.397406,3.408044 0.487179,0.753078 1.201765,2.486187 1.535676,3.724534 0.335501,1.244226 0.242991,5.633748 -0.160885,7.634214 -0.362586,1.795938 -1.093165,3.862979 -1.885041,5.333398 -0.27483,0.510333 -0.431247,0.900107 -0.347589,0.866172 0.313776,-0.127282 2.261963,-2.53213 2.997076,-3.699607 2.421246,-3.84532 3.475316,-9.145399 2.773426,-13.945326 -1.11319,-7.612687 -7.07461,-14.278081 -13.790156,-15.418602 -0.658938,-0.11191 -1.463732,-0.09841 -2.532835,0.04249 l -1.567016,0.206528 -0.499596,-0.583462 c -0.457575,-0.534387 -0.491169,-0.657642 -0.39948,-1.465502 0.132606,-1.168355 1.040466,-2.540282 2.379084,-3.595202 3.280656,-2.585367 6.853792,-2.058038 10.738308,1.584783 0.660399,0.619314 1.641282,1.632731 2.179736,2.252045 0.538449,0.619307 1.036289,1.151154 1.106289,1.181881 0.12501,0.05487 -0.75878,-1.557743 -2.071843,-3.780389 -0.365867,-0.619314 -1.939943,-2.995884 -3.497943,-5.281274 -3.485456,-5.112724 -4.63518,-7.000143 -5.983285,-9.822376 -1.186178,-2.483227 -1.664924,-4.127953 -1.931127,-6.634305 -0.26368,-2.482568 0.137017,-5.057979 1.093674,-7.029396 1.484739,-3.059661 5.333019,-5.532953 8.608913,-5.532953 1.951362,0 4.979007,1.168989 6.144787,2.372534 1.77661,1.834156 2.56949,3.472848 2.70774,5.596223 0.085,1.305547 -0.15385,3.224441 -0.4383,3.521268 -0.0928,0.09684 -0.34965,0.01283 -0.6554,-0.214349 -1.56908,-1.165875 -3.53669,-1.6184 -5.046071,-1.160525 -2.459329,0.746039 -3.767189,3.072784 -3.771487,6.709628 -0.0031,2.88738 1.004594,6.175449 3.483599,11.363291 1.296213,2.712603 3.471429,6.705908 3.587079,6.585226 0.0331,-0.03457 -0.0132,-0.330023 -0.10294,-0.656556 -0.25334,-0.921798 -0.1976,-4.109777 0.0922,-5.270634 0.56821,-2.276401 2.41937,-4.510728 4.17957,-5.04469 1.31566,-0.399105 2.94166,-0.260326 3.91358,0.33403 0.81366,0.497578 1.77833,1.549067 1.77833,1.93839 0,0.137463 -0.54849,0.797509 -1.21888,1.466766 -2.06362,2.060166 -2.70517,3.859797 -2.87291,8.058952 -0.0822,2.057115 -0.0173,3.139025 0.42769,7.127113 0.45036,4.036656 0.52548,5.311059 0.53097,9.008158 0.006,3.622328 -0.0489,4.635005 -0.34211,6.375623 -1.50454,8.933518 -5.64899,15.392752 -13.209091,20.586708 -3.522495,2.42004 -7.831425,4.16988 -12.03596,4.88777 -1.888956,0.32252 -6.1022,0.46829 -7.719614,0.26707 z M 45.008827,80.389666 C 44.899023,80.251613 44.394507,78.783125 43.887671,77.126353 43.380834,75.469587 41.74695,70.255266 40.256815,65.538976 38.766686,60.822682 36.746775,54.414328 35.768126,51.298188 33.642194,44.52894 33.399189,44.031847 31.822108,43.226161 30.612418,42.608163 30.345915,42.175404 30.639117,41.305213 l 0.15232,-0.452067 6.719574,-0.04563 c 6.169745,-0.0419 6.73656,-0.02148 6.927092,0.249646 0.602316,0.857012 -0.08885,1.875516 -1.451334,2.138689 -0.501484,0.09686 -1.053052,0.323521 -1.225701,0.50368 -0.368271,0.384295 -0.424434,0.174528 3.243435,12.114163 2.366121,7.702171 4.123474,13.518555 4.123474,13.647604 0,0.04537 0.07471,0.03431 0.166018,-0.02462 0.09131,-0.05886 0.166011,-0.220412 0.166011,-0.358949 0,-0.138544 1.306624,-3.889371 2.903614,-8.335191 l 2.90362,-8.083295 -1.167894,-3.629799 c -0.642348,-1.996394 -1.310697,-3.921885 -1.485229,-4.27887 -0.376652,-0.770416 -1.179496,-1.51584 -1.797297,-1.668761 -0.705319,-0.174574 -1.024786,-0.569907 -1.024786,-1.268137 0,-0.347289 0.08964,-0.724983 0.199216,-0.839321 0.23185,-0.241934 9.352004,-0.305719 9.493752,-0.0664 0.133817,0.225938 4.401863,14.429874 7.427222,24.717578 0.364248,1.238621 0.743003,2.519689 0.841682,2.846818 l 0.179414,0.594781 0.294789,-1.027867 c 0.532381,-1.856292 1.782754,-6.338659 2.702937,-9.689557 0.497123,-1.810296 1.547157,-5.605123 2.333417,-8.432954 0.786254,-2.827831 1.429555,-5.289321 1.429555,-5.469977 0,-0.626988 -0.70535,-1.077031 -2.078585,-1.326213 -1.396575,-0.253425 -1.739716,-0.512729 -1.739716,-1.314689 0,-0.249411 0.106039,-0.604799 0.235646,-0.78975 0.224609,-0.320523 0.479994,-0.336269 5.452931,-0.336269 5.821666,0 5.766338,-0.01087 5.766338,1.134858 0,0.803826 -0.296183,1.139454 -1.21107,1.372352 -0.921306,0.234529 -1.790446,0.73739 -2.155246,1.246956 -0.356525,0.49801 -4.448112,13.423346 -9.914515,31.320017 -0.741152,2.426488 -1.427082,4.511789 -1.524287,4.634003 -0.200213,0.251742 -3.542272,0.324346 -3.686937,0.0801 -0.07945,-0.13415 -1.091245,-3.396004 -4.362209,-14.063055 -0.774231,-2.524884 -1.684946,-5.475546 -2.023808,-6.557023 l -0.616107,-1.966321 -1.530756,4.218359 c -0.841915,2.320106 -2.642387,7.323667 -4.001052,11.11903 -1.358665,3.795363 -2.557224,6.991526 -2.66347,7.10259 -0.111849,0.116917 -0.875062,0.226547 -1.812946,0.26041 -1.26343,0.04564 -1.663688,0.0033 -1.819402,-0.19252 z M 41.92039,33.283442 c -0.960729,-0.870862 -0.638037,-2.615877 0.606219,-3.278257 0.751361,-0.399986 3.567847,-1.029091 6.601368,-1.474514 3.018093,-0.443157 11.89735,-0.450288 14.609166,-0.01173 4.174166,0.675047 6.037164,1.147891 6.715101,1.704349 0.919743,0.754937 1.105952,1.856704 0.486356,2.877645 -0.299834,0.494051 -0.97932,0.509441 -2.41109,0.05461 -2.662039,-0.845652 -5.514854,-1.216379 -10.005697,-1.300256 -5.94218,-0.110983 -10.809247,0.310811 -13.761809,1.192638 -2.266029,0.676785 -2.34554,0.683379 -2.839614,0.235515 z m -1.164971,-6.418927 c -0.03382,-0.119098 -0.186296,-1.190983 -0.338855,-2.381966 -0.550275,-4.295838 -1.302495,-7.399471 -2.288247,-9.441244 -0.676694,-1.401633 -1.173956,-2.050612 -2.135651,-2.787266 -1.298944,-0.994982 -1.004362,-1.525614 1.098009,-1.977874 3.579549,-0.7700299 7.388934,1.63818 7.388934,4.671123 0,0.753902 -0.07902,0.963843 -0.581046,1.543693 -0.685591,0.791874 -0.760339,1.586158 -0.257926,2.740904 0.400847,0.921316 1.560886,2.241074 2.329527,2.650259 1.611923,0.858111 3.394331,0.542446 4.866897,-0.861932 1.009846,-0.963089 1.51123,-1.982213 1.756602,-3.570536 0.184596,-1.194898 0.237603,-1.109966 -1.488943,-2.38562 -2.298682,-1.698376 -2.897132,-3.102809 -2.07204,-4.862593 0.39269,-0.8375329 0.560753,-1.0026779 1.541523,-1.5147639 1.072189,-0.5598183 1.112673,-0.6055802 1.55849,-1.7617847 0.747652,-1.9389937 3.522482,-6.17540088 4.044861,-6.17540088 0.610541,0 2.844345,3.14524028 3.998586,5.63009958 0.867032,1.8665414 0.904716,1.9162174 1.839833,2.4252741 1.080724,0.5883199 1.511049,1.1100339 1.725725,2.0922128 0.330987,1.514295 -0.347313,2.676068 -2.411743,4.130774 -1.316733,0.927837 -1.500331,1.120106 -1.546399,1.619449 -0.146259,1.585188 1.076331,3.852926 2.642646,4.901743 0.728904,0.488079 1.068167,0.598552 2.008441,0.653994 0.968591,0.05711 1.262307,-1.31e-4 2.041239,-0.397801 0.999693,-0.510379 1.872253,-1.493949 2.397831,-2.702912 0.463493,-1.066133 0.436117,-1.738911 -0.0951,-2.337029 -0.240333,-0.270601 -0.538975,-0.746759 -0.66365,-1.05813 -0.524242,-1.309256 0.548199,-3.448571 2.268464,-4.525141 1.261498,-0.78947 2.003742,-0.983155 3.729541,-0.973212 1.642957,0.0095 3.108942,0.453991 3.204484,0.971681 0.03325,0.180273 -0.263982,0.532848 -0.799173,0.947894 -1.619597,1.256022 -2.750572,3.595532 -3.543671,7.330358 -0.436895,2.0574 -0.824277,4.471237 -1.023706,6.378865 -0.07796,0.745753 -0.196236,1.127963 -0.370649,1.197804 -0.140888,0.05641 -1.496309,-0.142331 -3.01205,-0.441654 -4.733966,-0.934845 -6.176057,-1.095105 -10.744459,-1.194034 -5.56517,-0.120513 -10.05446,0.289376 -14.747479,1.346501 -1.734076,0.390608 -2.236269,0.416199 -2.32085,0.118265 z"
       id="path1" /></g></svg>
