<?xml version="1.0" standalone="no"?>
<!DOCTYPE svg PUBLIC "-//W3C//DTD SVG 20010904//EN"
 "http://www.w3.org/TR/2001/REC-SVG-20010904/DTD/svg10.dtd">
<svg version="1.0" xmlns="http://www.w3.org/2000/svg"
 width="1024.000000pt" height="1536.000000pt" viewBox="0 0 1024.000000 1536.000000"
 preserveAspectRatio="xMidYMid meet">

<g transform="translate(0.000000,1536.000000) scale(0.100000,-0.100000)"
fill="#000000" stroke="none">
<path d="M6250 14681 c-19 -3 42 -6 135 -6 185 0 259 -11 440 -66 115 -36 282
-102 386 -154 85 -43 383 -221 522 -312 117 -77 132 -84 280 -122 163 -42 310
-56 434 -42 259 31 426 109 574 269 54 58 131 172 116 172 -2 0 -20 -26 -40
-59 -54 -86 -188 -209 -283 -258 -240 -125 -542 -145 -833 -57 -93 28 -139 53
-441 236 -258 156 -329 195 -461 251 -252 107 -468 158 -667 156 -70 -1 -143
-4 -162 -8z"/>
<path d="M6188 14663 c7 -3 16 -2 19 1 4 3 -2 6 -13 5 -11 0 -14 -3 -6 -6z"/>
<path d="M5070 14484 c1 -20 73 -106 122 -145 61 -49 188 -111 268 -130 37 -9
114 -14 230 -13 156 0 196 4 375 36 331 60 546 88 368 48 -417 -94 -754 -332
-833 -588 -11 -35 -19 -83 -19 -106 1 -34 3 -29 10 24 40 312 488 606 1027
676 96 12 172 15 312 11 205 -6 311 -24 474 -78 181 -60 475 -223 601 -334
l40 -35 -60 36 c-102 60 -244 124 -367 166 -390 130 -728 127 -1077 -10 -137
-54 -224 -108 -312 -193 -57 -55 -60 -59 -13 -17 147 131 336 219 594 276 119
27 411 23 559 -6 310 -62 641 -219 816 -387 67 -64 46 -55 -27 12 -223 203
-601 321 -905 284 -323 -40 -562 -193 -679 -435 -44 -90 -57 -160 -52 -270 3
-76 9 -102 35 -158 64 -137 177 -218 314 -226 62 -4 84 -1 125 17 26 12 57 29
68 39 29 26 66 113 65 152 l-1 35 -9 -42 c-19 -101 -74 -160 -170 -183 -219
-53 -437 175 -416 434 17 212 165 411 382 517 268 130 576 142 875 34 100 -37
150 -62 256 -133 131 -88 354 -321 428 -447 15 -26 14 -25 -10 5 -57 72 -231
237 -294 278 -95 63 -232 127 -335 158 -119 35 -315 44 -419 20 -189 -45 -359
-197 -355 -318 1 -31 2 -30 9 9 39 194 300 324 586 292 248 -28 519 -167 701
-363 213 -228 360 -557 434 -971 44 -243 36 -705 -16 -945 -8 -36 -12 -49 -9
-30 12 95 16 446 5 551 -43 406 -189 771 -395 988 -243 254 -563 314 -760 141
-38 -34 -96 -119 -96 -141 1 -8 12 6 25 31 31 60 103 125 173 158 79 36 219
43 309 14 458 -145 773 -838 723 -1588 -16 -231 -58 -412 -152 -648 -34 -86
-101 -225 -82 -171 4 11 19 56 35 100 40 116 65 218 84 347 24 155 16 439 -15
588 -56 275 -162 485 -313 627 -104 97 -226 155 -321 152 -38 -2 -37 -2 14 -9
344 -47 605 -479 627 -1038 17 -452 -142 -902 -500 -1409 -81 -116 -114 -154
-52 -60 204 307 332 598 377 861 26 151 21 344 -12 476 -49 200 -183 380 -341
459 -96 48 -173 65 -261 58 -75 -6 -137 -30 -186 -72 -32 -27 -72 -92 -72
-117 0 -7 9 6 20 30 34 76 101 122 204 141 244 45 522 -175 605 -480 70 -255
41 -533 -90 -862 -67 -168 -144 -311 -281 -522 -163 -251 -261 -435 -323 -605
-18 -52 -34 -89 -35 -81 0 25 111 343 181 514 176 431 203 530 203 752 1 151
-13 221 -60 325 -32 69 -94 151 -136 181 -24 16 -18 8 20 -31 101 -103 162
-275 162 -457 0 -197 -39 -353 -164 -662 -233 -574 -290 -813 -291 -1211 0
-184 4 -231 23 -328 55 -273 155 -459 343 -637 l63 -60 -65 70 c-181 194 -255
377 -266 656 -13 337 88 626 281 806 76 72 136 109 226 141 54 20 59 22 25 18
-58 -8 -170 -67 -246 -130 -184 -151 -309 -477 -309 -802 0 -69 7 -123 35
-284 10 -56 -36 101 -54 185 -33 151 -43 288 -31 434 26 323 102 574 243 801
183 295 489 589 720 695 115 52 191 68 297 63 58 -3 84 -1 69 4 -38 14 -172
10 -240 -7 -94 -24 -252 -103 -349 -175 -184 -136 -413 -397 -526 -597 -47
-84 -63 -106 -41 -55 55 123 133 243 316 492 76 102 191 259 257 350 260 361
450 579 577 663 73 49 159 91 219 107 67 18 192 9 244 -18 58 -30 113 -90 129
-142 9 -29 14 -37 14 -22 1 12 -8 39 -18 60 -62 120 -217 177 -371 138 -213
-55 -388 -206 -653 -566 -112 -150 -131 -174 -97 -115 213 365 294 557 397
940 82 306 134 439 229 581 153 230 380 322 537 217 42 -28 47 -30 29 -10 -13
14 -47 35 -75 47 -147 63 -360 -30 -492 -214 -59 -83 -139 -250 -177 -369 -17
-54 -32 -96 -33 -95 -2 2 4 41 11 88 9 50 17 205 20 380 6 263 4 319 -16 515
-33 323 -22 448 52 602 44 91 143 192 218 222 43 17 48 21 21 16 -87 -14 -198
-120 -261 -249 -73 -151 -84 -271 -50 -591 23 -223 27 -363 5 -205 -59 429
-247 874 -502 1190 -64 79 -232 235 -344 319 -287 216 -654 372 -1023 436
-115 20 -336 19 -473 -1 -59 -9 -220 -44 -358 -79 -276 -70 -414 -90 -550 -82
-196 12 -373 102 -476 241 -16 21 -29 35 -29 30z m1795 -114 c93 -10 298 -50
292 -56 -2 -2 -51 3 -108 12 -200 31 -615 6 -893 -52 -128 -27 -78 -6 72 30
282 68 458 86 637 66z"/>
<path d="M9183 13483 c9 -2 25 -2 35 0 9 3 1 5 -18 5 -19 0 -27 -2 -17 -5z"/>
<path d="M7512 12975 c0 -16 2 -22 5 -12 2 9 2 23 0 30 -3 6 -5 -1 -5 -18z"/>
<path d="M8278 9483 c7 -3 16 -2 19 1 4 3 -2 6 -13 5 -11 0 -14 -3 -6 -6z"/>
<path d="M2429 8888 c-193 -138 -397 -378 -577 -678 -188 -314 -267 -497 -392
-916 -67 -222 -169 -649 -171 -716 0 -13 -3 -18 -5 -11 -3 6 15 144 40 305 80
524 89 614 89 868 -1 268 -30 450 -103 640 -32 82 -110 214 -160 270 -20 23
-16 14 13 -26 97 -136 158 -281 199 -471 21 -99 23 -132 23 -403 0 -321 -2
-337 -75 -790 -76 -471 -95 -694 -87 -1043 6 -277 14 -346 77 -602 53 -218 97
-342 190 -530 119 -239 178 -328 569 -860 151 -206 249 -321 387 -455 144
-141 259 -227 408 -306 143 -76 110 -67 -47 13 -260 132 -636 407 -806 589
-41 44 -143 165 -226 269 -86 107 -181 213 -216 243 -72 60 -223 138 -284 147
-28 4 -16 -2 40 -22 162 -57 265 -148 485 -428 192 -244 359 -403 586 -560 55
-38 103 -72 107 -76 5 -4 -74 34 -175 85 -210 106 -410 187 -536 218 -125 31
-311 31 -402 -1 -169 -59 -260 -164 -266 -306 l-3 -70 8 66 c33 288 381 401
784 255 132 -48 330 -139 486 -223 161 -87 429 -219 556 -273 109 -46 234 -85
358 -111 78 -16 83 -18 32 -13 -140 13 -251 45 -619 178 -320 116 -578 147
-791 96 -91 -22 -214 -88 -272 -146 -50 -50 -113 -159 -113 -194 0 -8 11 11
25 44 85 208 345 322 670 295 129 -11 333 -64 569 -148 360 -129 561 -165 793
-143 116 11 350 58 340 68 -2 3 -42 -5 -88 -16 -181 -45 -429 -36 -601 21
-111 36 -171 67 -280 141 -210 144 -328 291 -389 488 -21 64 -24 95 -24 215 1
166 15 228 83 360 37 72 64 108 137 180 136 137 262 195 420 195 95 0 171 -20
237 -62 276 -175 238 -608 -67 -759 -62 -30 -79 -34 -150 -34 -70 0 -86 4
-128 28 -116 68 -141 215 -54 313 40 47 80 66 136 66 37 0 42 2 23 9 -13 5
-40 5 -62 0 -100 -22 -162 -94 -168 -194 -3 -53 0 -70 25 -116 91 -172 333
-172 506 0 105 106 160 266 138 406 -22 141 -107 255 -238 320 -65 32 -84 37
-172 41 -83 4 -111 1 -172 -18 -122 -36 -185 -76 -289 -180 -164 -163 -220
-292 -228 -520 -5 -157 15 -265 69 -372 86 -172 262 -343 462 -449 39 -21 69
-39 65 -39 -17 0 -163 62 -172 74 -6 7 -54 42 -106 77 -221 149 -365 332 -446
564 -25 72 -28 93 -28 210 1 158 23 244 114 432 80 168 163 285 305 431 226
234 445 387 662 463 53 18 72 28 48 24 -108 -18 -323 -130 -484 -253 -95 -72
-273 -243 -345 -331 -30 -36 -79 -107 -110 -156 -79 -128 -81 -129 -36 -38 45
93 112 195 286 433 251 345 360 517 428 679 148 350 151 717 10 1010 -120 252
-300 406 -549 472 -116 31 -289 31 -408 0 -483 -125 -816 -522 -943 -1126 -26
-121 -28 -147 -28 -375 -1 -197 3 -262 17 -334 20 -96 18 -128 -2 -43 -50 212
-63 456 -37 682 72 625 321 1137 685 1411 174 130 338 189 509 182 53 -2 106
-7 117 -11 11 -4 4 0 -15 9 -53 26 -204 23 -303 -4 -168 -47 -317 -143 -474
-306 -167 -173 -296 -383 -393 -639 -96 -255 -158 -589 -161 -867 l-2 -115 -9
90 c-13 126 -2 431 22 610 52 392 205 827 402 1142 202 325 482 571 754 663
84 29 113 34 194 34 78 1 104 -3 143 -21 58 -27 62 -21 5 8 -29 15 -68 23
-123 27 -311 19 -736 -285 -993 -710 -136 -224 -220 -426 -326 -783 -50 -166
47 253 121 525 118 437 241 734 443 1075 132 222 331 462 492 590 93 75 93 75
87 75 -4 0 -26 -14 -50 -32z m271 -1779 c152 -38 320 -146 415 -268 148 -189
214 -392 215 -657 2 -371 -115 -636 -510 -1159 -238 -315 -325 -463 -400 -680
-35 -101 -31 -57 6 73 40 139 91 266 186 467 159 335 195 451 205 650 4 91 1
136 -11 188 -14 62 -59 167 -71 167 -3 0 3 -17 14 -38 41 -81 55 -152 55 -277
-1 -190 -45 -338 -190 -641 -122 -256 -181 -407 -225 -579 -53 -206 -64 -413
-29 -548 36 -141 118 -299 205 -396 21 -23 33 -41 28 -41 -17 0 -274 270 -344
360 -190 244 -353 577 -410 835 -21 92 -18 343 5 430 41 159 147 325 260 407
21 15 34 28 28 28 -17 0 -105 -74 -156 -131 -55 -62 -127 -205 -151 -299 -25
-98 -31 -286 -11 -400 23 -136 79 -301 157 -458 37 -75 66 -138 64 -140 -3 -4
-177 264 -248 385 -160 270 -233 465 -290 768 -28 155 -31 457 -4 602 60 326
218 601 442 770 128 96 236 133 397 133 110 0 180 -12 256 -46 29 -13 50 -19
47 -15 -9 16 -133 60 -197 71 -199 32 -376 -19 -551 -160 -141 -112 -265 -293
-342 -495 -71 -187 -108 -491 -87 -702 38 -364 136 -648 340 -983 14 -22 14
-23 0 -10 -8 8 -45 63 -81 121 -230 370 -333 640 -368 961 -14 131 -6 445 15
556 95 509 338 877 703 1064 215 111 422 140 633 87z m-1423 -591 c-3 -8 -6
-5 -6 6 -1 11 2 17 5 13 3 -3 4 -12 1 -19z"/>
<path d="M1984 6046 c-287 -106 -474 -534 -425 -970 20 -177 73 -376 123 -466
20 -36 19 -31 -14 60 -57 162 -97 383 -98 535 -1 460 234 833 540 858 43 3 42
4 -10 5 -35 1 -77 -7 -116 -22z"/>
<path d="M3578 5323 c18 -2 45 -2 60 0 15 2 0 4 -33 4 -33 0 -45 -2 -27 -4z"/>
<path d="M4031 4614 c0 -11 3 -14 6 -6 3 7 2 16 -1 19 -3 4 -6 -2 -5 -13z"/>
<path d="M4044 4570 c35 -180 0 -425 -88 -615 -80 -174 -243 -362 -406 -470
-110 -74 -172 -103 -255 -121 l-60 -13 75 5 c167 13 294 50 507 147 264 121
395 152 598 144 253 -11 371 -65 661 -304 192 -158 287 -213 444 -255 75 -20
107 -23 260 -22 128 1 190 6 230 17 33 10 41 14 20 11 -214 -31 -350 -29 -504
10 -162 42 -265 101 -472 276 -246 206 -392 274 -619 287 -196 11 -359 -28
-615 -147 -163 -76 -264 -113 -370 -135 -96 -20 -96 -20 -12 20 109 51 200
115 291 206 235 233 356 535 338 837 -3 53 -11 108 -17 122 l-10 25 4 -25z"/>
<path d="M1178 4433 c12 -2 30 -2 40 0 9 3 -1 5 -23 4 -22 0 -30 -2 -17 -4z"/>
<path d="M3985 3335 c-44 -7 -154 -31 -245 -54 -170 -42 -325 -70 -395 -72
l-40 -1 40 -10 c23 -6 201 -11 410 -12 350 -1 374 -3 449 -24 44 -12 103 -33
133 -46 60 -28 72 -26 16 3 -65 32 -194 68 -293 81 -91 12 -390 8 -465 -6 -16
-3 -64 -2 -105 2 l-75 8 68 8 c37 4 155 28 262 53 249 57 354 70 482 55 235
-26 351 -72 578 -231 61 -42 130 -88 155 -102 62 -36 214 -84 285 -91 l60 -5
-65 13 c-166 33 -267 80 -430 201 -270 200 -541 276 -825 230z"/>
<path d="M6085 3110 c-13 -5 -14 -9 -5 -9 8 0 24 4 35 9 13 5 14 9 5 9 -8 0
-24 -4 -35 -9z"/>
<path d="M1532 2850 c0 -19 2 -27 5 -17 2 9 2 25 0 35 -3 9 -5 1 -5 -18z"/>
</g>
</svg>
