<?xml version="1.0" encoding="UTF-8" standalone="no"?>
<svg
   version="1.0"
   width="587.07159pt"
   height="641.48914pt"
   viewBox="0 0 587.07159 641.48914"
   preserveAspectRatio="xMidYMid"
   id="svg26"
   sodipodi:docname="patronpelos1.svg"
   inkscape:version="1.4.1 (93de688d07, 2025-03-30)"
   xmlns:inkscape="http://www.inkscape.org/namespaces/inkscape"
   xmlns:sodipodi="http://sodipodi.sourceforge.net/DTD/sodipodi-0.dtd"
   xmlns="http://www.w3.org/2000/svg"
   xmlns:svg="http://www.w3.org/2000/svg">
  <defs
     id="defs26">
    <clipPath
       clipPathUnits="userSpaceOnUse"
       id="clipPath27">
      <rect
         style="fill:#000000;stroke-width:19.1274"
         id="rect27"
         width="5887.312"
         height="6455.0542"
         x="185.80672"
         y="-6905.8066"
         transform="scale(1,-1)" />
    </clipPath>
  </defs>
  <sodipodi:namedview
     id="namedview26"
     pagecolor="#ffffff"
     bordercolor="#000000"
     borderopacity="0.25"
     inkscape:showpageshadow="2"
     inkscape:pageopacity="0.0"
     inkscape:pagecheckerboard="0"
     inkscape:deskcolor="#d1d1d1"
     inkscape:document-units="pt"
     inkscape:zoom="0.38531795"
     inkscape:cx="596.90964"
     inkscape:cy="484.01586"
     inkscape:window-width="936"
     inkscape:window-height="976"
     inkscape:window-x="965"
     inkscape:window-y="65"
     inkscape:window-maximized="0"
     inkscape:current-layer="svg26" />
  <g
     transform="matrix(0.1,0,0,-0.1,-20.240288,690.58066)"
     fill="#000000"
     stroke="none"
     id="g26"
     clip-path="url(#clipPath27)">
    <path
       d="m 9858,10013 c 7,-3 16,-2 19,1 4,3 -2,6 -13,5 -11,0 -14,-3 -6,-6 z"
       id="path1" />
    <path
       d="m 9895,10006 c 19,-9 326,-68 331,-64 5,6 -231,55 -296,63 -25,3 -40,3 -35,1 z"
       id="path2" />
    <path
       d="m 7463,9956 c -33,-30 -37,-39 -40,-92 -4,-47 0,-68 19,-104 64,-125 242,-172 513,-136 139,18 278,55 494,132 310,110 505,147 776,148 320,1 618,-67 933,-214 71,-34 82,-36 82,-21 0,14 -35,33 -147,80 -246,104 -465,159 -698,176 -44,4 -93,8 -110,10 -16,2 -84,0 -150,-5 -278,-22 -391,-49 -780,-184 -276,-95 -345,-109 -545,-110 -186,-1 -236,10 -304,66 -93,76 -100,215 -14,268 18,11 27,20 20,20 -7,0 -29,-15 -49,-34 z"
       id="path3" />
    <path
       d="m 6840,9816 c 152,-163 408,-283 675,-317 126,-15 427,-7 515,15 136,34 369,111 475,156 61,26 139,56 175,68 362,121 768,105 1167,-44 91,-34 283,-122 238,-108 -136,39 -300,59 -425,49 -192,-14 -427,-66 -615,-137 -107,-39 -285,-123 -285,-133 0,-3 28,9 62,26 146,74 353,144 546,185 162,35 446,44 577,20 73,-14 223,-58 283,-82 6,-3 12,0 12,8 0,31 -234,150 -425,216 -232,80 -392,107 -630,107 -266,0 -412,-32 -676,-145 -164,-70 -427,-153 -559,-176 -144,-25 -429,-15 -566,19 -223,57 -394,144 -534,271 l -55,50 z"
       id="path4" />
    <path
       d="m 10130,9821 c 41,-15 84,-32 95,-36 16,-6 17,-5 9,4 -14,15 -138,61 -162,60 -9,0 17,-13 58,-28 z"
       id="path5" />
    <path
       d="m 9086,9784 c -194,-26 -343,-90 -501,-215 -210,-166 -377,-228 -618,-230 -95,-1 -106,-2 -72,-11 87,-21 299,11 444,68 69,28 179,98 296,189 165,130 380,193 660,196 71,0 103,3 90,9 -30,13 -186,10 -299,-6 z"
       id="path6" />
    <path
       d="m 9590,9565 c -93,-20 -186,-53 -255,-89 -71,-37 -172,-129 -213,-194 -134,-210 -35,-466 193,-496 92,-12 220,38 261,103 14,21 10,20 -22,-10 -66,-62 -98,-74 -199,-74 -80,0 -95,3 -137,27 -153,90 -183,285 -70,456 110,168 342,269 657,285 33,2 13,4 -45,4 -58,1 -134,-5 -170,-12 z"
       id="path7" />
    <path
       d="m 9878,9563 c 6,-2 18,-2 25,0 6,3 1,5 -13,5 -14,0 -19,-2 -12,-5 z"
       id="path8" />
    <path
       d="m 8810,9214 c -66,-84 -182,-188 -254,-225 -36,-18 -63,-35 -61,-37 7,-7 111,50 163,90 61,47 219,228 199,228 -2,0 -24,-25 -47,-56 z"
       id="path9" />
    <path
       d="m 10154,9050 c -39,-21 -77,-47 -85,-56 -11,-15 -8,-14 16,3 17,11 58,35 93,52 57,29 74,41 55,41 -5,0 -40,-18 -79,-40 z"
       id="path10" />
    <path
       d="m 10193,8905 c -107,-33 -230,-149 -289,-271 -19,-39 -34,-77 -34,-85 0,-7 17,23 39,67 63,130 182,243 289,275 23,7 42,16 42,21 0,4 -1,8 -2,7 -2,0 -22,-6 -45,-14 z"
       id="path11" />
    <path
       d="m 1302,6847 c -97,-66 -153,-118 -242,-224 -282,-337 -404,-632 -545,-1322 -25,-123 -55,-260 -65,-305 -11,-44 -19,-88 -19,-96 1,-27 48,161 94,385 119,569 225,870 400,1130 139,208 257,338 386,425 32,23 59,43 59,45 0,8 -2,7 -68,-38 z"
       id="path12" />
    <path
       d="m 269,6253 c 66,-133 115,-341 132,-569 17,-220 5,-395 -61,-919 -59,-469 -73,-645 -74,-955 0,-215 3,-301 17,-395 38,-252 98,-466 202,-710 114,-268 212,-422 635,-1002 67,-91 211,-248 244,-265 12,-6 -15,27 -60,73 -97,102 -167,192 -351,454 -178,254 -233,340 -331,517 -161,287 -244,526 -304,873 -21,117 -23,161 -23,455 1,351 7,436 70,937 85,667 85,963 -1,1283 -24,87 -105,280 -119,280 -3,0 8,-26 24,-57 z"
       id="path13" />
    <path
       d="m 1505,6124 c -86,-21 -250,-104 -343,-174 -194,-146 -375,-389 -496,-666 -25,-57 -82,-206 -126,-331 -45,-126 -94,-264 -111,-307 -16,-43 -28,-81 -26,-83 5,-4 56,127 153,397 143,395 301,668 504,870 137,137 243,206 393,258 94,33 111,36 217,36 93,-1 127,-5 179,-23 88,-31 156,-76 225,-152 56,-60 57,-61 25,-15 -65,93 -164,159 -285,191 -73,19 -228,18 -309,-1 z"
       id="path14" />
    <path
       d="M 1464,5651 C 1251,5599 1035,5436 817,5165 556,4839 422,4544 361,4159 c -21,-131 -42,-388 -40,-492 1,-34 7,19 15,118 30,421 87,652 234,950 180,367 484,716 735,843 118,59 196,77 338,77 71,0 118,3 105,7 -47,13 -213,7 -284,-11 z"
       id="path15" />
    <path
       d="M 1507,5054 C 1149,4990 839,4748 651,4389 550,4197 506,4021 488,3740 c -22,-334 18,-627 129,-965 64,-194 216,-462 419,-737 25,-35 61,-93 80,-130 81,-161 224,-374 362,-542 97,-118 244,-268 305,-313 26,-19 46,-37 44,-39 -6,-6 -209,106 -380,210 -321,194 -524,370 -626,541 -61,103 -61,86 1,-21 72,-128 165,-222 372,-377 109,-82 452,-295 573,-356 34,-17 103,-56 153,-86 190,-115 342,-180 539,-230 226,-57 354,-57 639,-1 577,113 846,84 1093,-118 14,-12 5,-2 -19,22 -84,81 -234,148 -387,173 -142,23 -391,0 -722,-66 -151,-30 -331,-34 -468,-10 -107,19 -312,114 -415,193 -147,111 -257,266 -310,437 -34,108 -38,267 -11,374 101,400 509,647 816,495 202,-101 270,-364 133,-519 -52,-59 -107,-86 -184,-93 -73,-5 -124,9 -179,51 l -40,31 25,-29 c 61,-68 198,-87 295,-41 196,93 231,355 69,535 -81,90 -208,138 -343,128 -158,-11 -287,-74 -417,-202 -92,-90 -148,-182 -191,-310 -23,-69 -26,-97 -27,-210 -1,-110 3,-142 22,-205 73,-230 220,-415 425,-530 66,-37 73,-46 20,-23 -148,61 -201,100 -370,271 -71,72 -161,205 -185,272 -65,187 -77,382 -34,551 69,270 234,529 515,809 235,234 416,347 636,395 33,7 48,13 34,14 -44,2 -196,-47 -283,-90 -152,-76 -284,-178 -441,-340 -265,-273 -433,-559 -491,-832 -15,-71 -20,-249 -10,-324 3,-21 -10,8 -29,65 -47,138 -62,268 -47,396 22,172 72,295 224,547 125,207 168,325 168,466 0,82 -18,164 -44,198 -10,13 -7,-1 6,-35 31,-79 31,-229 -1,-320 -35,-100 -92,-217 -164,-336 -88,-146 -161,-302 -187,-399 -27,-101 -37,-277 -21,-370 19,-114 59,-231 123,-364 79,-164 122,-227 231,-336 50,-49 78,-81 61,-71 -158,103 -370,306 -518,496 -261,336 -438,681 -490,958 -67,353 3,659 194,853 41,42 89,86 105,98 l 30,22 -33,-18 c -54,-29 -139,-110 -186,-176 -105,-149 -146,-278 -153,-488 -4,-89 -1,-179 6,-230 15,-101 54,-255 81,-317 11,-25 19,-46 17,-48 -5,-5 -112,160 -109,168 1,4 -22,67 -51,140 -126,312 -152,525 -97,778 47,219 135,393 295,585 l 67,80 -72,-75 C 752,3452 650,2967 796,2522 c 19,-59 53,-140 75,-180 22,-41 39,-76 36,-78 -6,-6 -105,163 -160,272 -65,129 -111,248 -151,388 -129,448 -105,879 69,1220 141,276 373,466 632,516 97,19 263,8 344,-22 146,-54 267,-174 329,-328 17,-41 28,-61 25,-45 -19,94 -113,238 -198,303 -104,80 -189,110 -327,119 -416,25 -789,-300 -931,-812 l -20,-70 6,65 c 14,151 73,356 140,491 123,243 338,465 560,576 89,45 237,89 345,103 500,65 935,-271 1024,-789 9,-52 16,-150 16,-217 0,-448 -215,-907 -658,-1404 l -94,-105 114,116 c 318,324 547,717 627,1075 147,660 -168,1230 -739,1338 -100,19 -247,19 -353,0 z"
       id="path16" />
    <path
       d="m 2001,4214 c 0,-11 3,-14 6,-6 3,7 2,16 -1,19 -3,4 -6,-2 -5,-13 z"
       id="path17" />
    <path
       d="m 3503,2587 c 19,-53 29,-161 24,-257 -9,-155 -44,-279 -127,-445 -181,-364 -466,-638 -774,-747 -45,-16 -67,-27 -49,-24 106,17 305,125 444,241 79,66 193,197 267,307 173,257 252,479 252,708 0,98 -18,212 -35,228 -5,4 -5,-1 -2,-11 z"
       id="path18" />
    <path
       d="m 260,2340 c 101,-26 236,-95 345,-177 90,-68 296,-265 414,-398 l 63,-70 -47,62 c -165,217 -414,441 -585,525 -75,37 -207,78 -245,77 -11,0 14,-9 55,-19 z"
       id="path19" />
    <path
       d="m 460,1792 c 0,-7 11,-40 25,-73 86,-212 340,-412 684,-539 46,-17 85,-29 87,-27 2,1 -52,27 -120,55 -345,148 -565,329 -651,538 -14,33 -25,53 -25,46 z"
       id="path20" />
    <path
       d="M 3590,1401 C 3439,1369 3288,1297 3063,1149 2874,1025 2636,938 2460,927 l -45,-3 40,-8 c 52,-12 170,5 272,39 112,38 269,118 415,213 153,99 305,174 413,203 114,30 314,37 426,14 186,-37 294,-95 589,-317 107,-80 219,-160 249,-178 60,-35 216,-90 252,-89 13,0 -10,9 -51,20 -111,30 -202,79 -336,180 -65,50 -160,122 -210,160 -179,136 -329,211 -486,243 -104,21 -288,20 -398,-3 z"
       id="path21" />
    <path
       d="m 628,1225 c -87,-18 -159,-57 -213,-117 -52,-58 -75,-120 -75,-203 0,-72 13,-115 49,-166 28,-40 88,-86 98,-75 3,3 1,6 -5,6 -20,0 -83,62 -104,104 -32,62 -35,157 -8,228 59,157 233,237 457,209 138,-17 266,-52 502,-136 241,-86 261,-93 201,-64 -76,35 -349,135 -460,168 -122,36 -263,61 -329,60 -25,0 -76,-7 -113,-14 z"
       id="path22" />
    <path
       d="m 3445,1084 c -100,-18 -184,-43 -353,-105 -120,-44 -301,-100 -421,-130 -82,-20 -34,-20 60,1 105,22 286,77 460,139 277,98 503,114 749,51 105,-27 170,-54 460,-195 376,-182 522,-231 774,-262 245,-30 502,6 758,106 59,23 110,47 113,52 3,5 -16,-1 -42,-12 -89,-39 -245,-88 -352,-111 -139,-30 -435,-32 -576,-5 -218,43 -395,111 -740,286 -244,124 -340,161 -480,186 -108,18 -302,18 -410,-1 z"
       id="path23" />
    <path
       d="M 1146,905 C 1072,886 981,837 944,797 l -29,-31 41,32 c 103,79 207,107 374,99 147,-7 244,-32 525,-137 342,-127 529,-172 848,-201 136,-12 305,-2 437,26 68,15 62,15 -110,-5 -295,-34 -666,18 -1010,140 -326,116 -459,160 -535,175 -114,24 -267,28 -339,10 z"
       id="path24" />
    <path
       d="m 5108,793 c 6,-2 18,-2 25,0 6,3 1,5 -13,5 -14,0 -19,-2 -12,-5 z"
       id="path25" />
    <path
       d="m 1502,729 c -58,-10 -153,-51 -172,-74 -7,-8 7,-4 31,10 99,55 228,68 380,39 46,-9 170,-44 274,-79 306,-103 468,-136 645,-134 l 95,2 -75,8 c -41,5 -113,13 -160,19 -115,13 -332,68 -540,135 -159,52 -323,86 -395,84 -16,-1 -54,-5 -83,-10 z"
       id="path26" />
  </g>
</svg>
